<?xml version="1.0" encoding="UTF-8"?>
<svg version="1.1" xmlns="http://www.w3.org/2000/svg" width="1396" height="1466">
<path d="M0 0 C1.83938487 -0.00701996 1.83938487 -0.00701996 3.71592903 -0.01418173 C7.10305905 -0.0240487 10.48968714 -0.02053667 13.87678623 -0.01122308 C17.53601842 -0.00441938 21.19520759 -0.01492034 24.85443115 -0.02316284 C32.01626799 -0.03648831 39.1780104 -0.03362774 46.3398509 -0.02492492 C52.16149132 -0.01814411 57.9831053 -0.01723337 63.80474854 -0.02049637 C65.04857054 -0.02118592 65.04857054 -0.02118592 66.31752026 -0.0218894 C68.00216215 -0.02284859 69.68680402 -0.02382123 71.37144589 -0.02480717 C87.16071751 -0.03335759 102.94993684 -0.0235324 118.73919988 -0.00740607 C132.2810748 0.0059968 145.82287256 0.00366861 159.36474609 -0.01016235 C175.09831194 -0.02622432 190.83183199 -0.03253365 206.56540489 -0.02332556 C208.24377822 -0.02236994 209.92215156 -0.02142682 211.6005249 -0.02049637 C212.42627238 -0.02003354 213.25201987 -0.01957072 214.10279 -0.01909386 C219.9160517 -0.01650583 225.72928431 -0.02087096 231.5425415 -0.02793503 C238.62895424 -0.03635707 245.7152673 -0.0340551 252.80166864 -0.0180928 C256.41584666 -0.01021953 260.02985863 -0.00710226 263.64403534 -0.01704025 C267.56454153 -0.02765736 271.48477701 -0.01496246 275.40527344 0 C276.54379824 -0.00669217 277.68232304 -0.01338433 278.85534859 -0.02027929 C286.98199386 0.03992516 294.05428996 1.04899023 300.34690857 6.76725769 C306.00186905 13.4982321 308.57315529 23.06413929 311.44873047 31.21298218 C312.1305087 33.11921962 312.81228736 35.0254569 313.49408245 36.93168831 C314.46471655 39.65069943 315.42940865 42.37180576 316.39440155 45.09282303 C317.65071298 48.63167026 318.91331994 52.1682685 320.17578125 55.70492554 C320.69336057 57.15495258 321.21093868 58.60498005 321.72851562 60.05500793 C321.98712372 60.77946043 322.24573181 61.50391293 322.51217651 62.25031853 C323.30498566 64.47222755 324.09689497 66.69445574 324.88867188 68.91673279 C328.32267815 78.54977897 331.79279925 88.16913799 335.29151344 97.77886391 C336.06655077 99.90810136 336.84065813 102.03767445 337.61442566 104.16737366 C337.86541551 104.85813649 338.11640535 105.54889933 338.37500095 106.26059437 C338.87485682 107.63628956 339.37469614 109.01199077 339.87451839 110.38769817 C341.09204525 113.73739215 342.31202526 117.08615623 343.53707886 120.43310547 C344.89891856 124.15401126 346.25028432 127.878675 347.60107422 131.60360718 C348.00414291 132.69868591 348.40721161 133.79376465 348.82249451 134.92202759 C350.69266364 140.10207867 352.21812373 144.88478704 352.70263672 150.38095093 C351.55150391 150.96360718 350.40037109 151.54626343 349.21435547 152.14657593 C315.55456184 169.39079109 285.05684507 191.85584631 260.27929688 220.56137085 C258.1788255 222.98546703 256.00403258 225.33752073 253.82763672 227.69345093 C249.78861518 232.12726404 245.92756794 236.66149677 242.16357422 241.33016968 C240.36983436 243.55383766 238.56391288 245.76293571 236.74169922 247.96298218 C228.33021678 258.1521757 220.41062871 268.65125643 212.70263672 279.38095093 C212.11305176 280.20143921 211.5234668 281.02192749 210.91601562 281.86727905 C191.06309704 309.61039063 173.98610164 338.89227978 158.70263672 369.38095093 C158.20634766 370.36950073 157.71005859 371.35805054 157.19873047 372.3765564 C135.77014684 415.35779924 120.43095859 461.37663649 110.70263672 508.38095093 C110.37271729 509.97084839 110.37271729 509.97084839 110.03613281 511.59286499 C106.26974734 530.06832595 103.72893176 548.64806 101.70263672 567.38095093 C101.58259277 568.44523315 101.46254883 569.50951538 101.33886719 570.60604858 C92.20638399 654.59495142 106.61271378 742.16512306 178.70263672 902.38095093 C179.25306641 903.29989136 179.80349609 904.21883179 180.37060547 905.1656189 C187.42897303 916.93724913 194.91499777 928.25323838 203.12060547 939.25643921 C204.68028126 941.35092976 206.2240059 943.45638469 207.76513672 945.56454468 C214.35513404 954.52809417 221.35704152 963.02934078 228.70263672 971.38095093 C229.36005859 972.13891968 230.01748047 972.89688843 230.69482422 973.67782593 C232.35339232 975.58861867 234.02685252 977.48524575 235.70263672 979.38095093 C236.30172852 980.06487915 236.90082031 980.74880737 237.51806641 981.45346069 C243.5966191 988.31252511 249.98735571 994.81922429 256.4777832 1001.28646851 C258.26939622 1003.07269763 260.05556726 1004.8642444 261.84130859 1006.65634155 C267.62557345 1012.44421825 273.43795924 1018.10809638 279.70263672 1023.38095093 C281.14896484 1024.64938843 281.14896484 1024.64938843 282.62451172 1025.94345093 C313.75714177 1052.77599396 348.84483169 1075.30161495 385.70263672 1093.38095093 C385.4758725 1092.80373291 385.24910828 1092.22651489 385.01547241 1091.63180542 C383.46568807 1087.68689982 381.91590373 1083.74199422 380.36611938 1079.79708862 C379.91513885 1078.64913818 379.46415833 1077.50118774 378.99951172 1076.31845093 C378.52449219 1075.1093103 378.04947266 1073.90016968 377.56005859 1072.65438843 C377.31656677 1072.03459106 377.07307495 1071.4147937 376.82220459 1070.7762146 C376.07629395 1068.87753296 375.3303833 1066.97885132 374.58447266 1065.08016968 C374.21094728 1064.12937782 374.21094728 1064.12937782 373.82987595 1063.15937805 C372.80574544 1060.55250041 371.78161494 1057.94562276 370.75748444 1055.33874512 C370.49961906 1054.68236053 370.24175369 1054.02597595 369.97607422 1053.34970093 C368.91975911 1050.66089884 367.86344401 1047.97209676 366.80712891 1045.28329468 C366.546591 1044.62010727 366.28605309 1043.95691986 366.01762009 1043.27363586 C364.7639033 1040.08235677 363.51018651 1036.89107768 362.25646973 1033.69979858 C361.33031765 1031.34232057 360.40416511 1028.98484275 359.47801208 1026.62736511 C358.57115813 1024.31900681 357.66430794 1022.01064703 356.75746155 1019.70228577 C354.49472787 1013.94255137 352.23192689 1008.18284344 349.96899414 1002.42318726 C344.84695977 989.38625996 339.72622596 976.34882384 334.60844421 963.31022644 C332.28614188 957.39441903 329.96208945 951.47931103 327.6340332 945.56576538 C326.73236794 943.27501512 325.83075607 940.98424385 324.92919922 938.69345093 C324.27006279 937.01867928 324.27006279 937.01867928 323.59761047 935.31007385 C321.04136991 928.80794426 318.5036726 922.29899112 315.98399353 915.78260803 C314.44429553 911.80377905 312.89604435 907.82830892 311.34658813 903.85327148 C310.63868252 902.03036009 309.93488422 900.20584704 309.23568726 898.37957764 C305.53705789 888.72168554 301.78402423 879.83679503 295.70263672 871.38095093 C295.21432373 870.68058716 294.72601074 869.98022339 294.22290039 869.25863647 C292.83740832 867.2865401 291.42817103 865.33337455 290.01513672 863.38095093 C252.45302263 810.58742332 230.04174855 748.05816988 219.70263672 684.38095093 C219.53024475 683.32795807 219.53024475 683.32795807 219.35437012 682.25369263 C212.76388354 641.4106173 213.09291786 598.19752675 219.70263672 557.38095093 C219.80918579 556.71525085 219.91573486 556.04955078 220.0255127 555.36367798 C230.74193695 489.02801031 257.66584103 425.94229995 296.70263672 371.38095093 C297.27900879 370.5739978 297.85538086 369.76704468 298.44921875 368.93563843 C305.02829238 359.7684007 311.77491291 350.83112064 319.17529297 342.31063843 C321.66593359 339.42349705 324.06445912 336.47808426 326.45263672 333.50595093 C329.43924264 329.83380734 332.52204937 326.42768204 335.93383789 323.15072632 C337.64106852 321.44255312 339.19953269 319.67526619 340.76123047 317.83407593 C345.31732591 312.59300256 350.22111193 307.71649907 355.14013672 302.81845093 C356.043125 301.91159546 356.94611328 301.00473999 357.87646484 300.07040405 C362.45807551 295.4954286 367.09180462 291.05205186 372.0065918 286.83627319 C374.16236073 284.98647636 376.24108257 283.05816822 378.32763672 281.13095093 C383.36950011 276.58172763 388.6544637 272.41192373 394.01904297 268.25595093 C396.44967863 266.37052258 398.85102138 264.45615565 401.22998047 262.50595093 C432.49971784 236.91305799 467.68239453 216.46421528 503.70263672 198.38095093 C504.61045898 197.92236694 505.51828125 197.46378296 506.45361328 196.99130249 C580.55434931 159.78602986 665.98273643 140.43443825 753.95263672 140.19345093 C755.31409821 140.1943573 755.31409821 140.1943573 756.70306396 140.19528198 C821.434857 140.31115456 885.4918787 151.69992742 946.14013672 174.38095093 C946.78120361 174.620354 947.42227051 174.85975708 948.08276367 175.10641479 C959.08193571 179.23305251 969.89750527 183.77325637 980.70263672 188.38095093 C988.16540829 168.51537747 995.61648775 148.64550794 1003.01513672 128.75595093 C1003.32668701 127.91847321 1003.6382373 127.08099548 1003.95922852 126.21813965 C1008.14216535 114.97207925 1012.31819315 103.72345632 1016.49247742 92.47418213 C1018.52215047 87.00445683 1020.55237128 81.53493487 1022.58264256 76.06543159 C1024.02290668 72.18519503 1025.46278205 68.30481507 1026.90176392 64.42410278 C1029.79955477 56.60955785 1032.70097485 48.79640631 1035.6142931 40.98763466 C1037.12513095 36.93670629 1038.62496909 32.88184779 1040.12060547 28.82528687 C1040.82458001 26.93481881 1041.52897027 25.04450547 1042.23388672 23.15438843 C1042.68411194 21.92058945 1042.68411194 21.92058945 1043.14343262 20.66186523 C1045.40768101 14.63635205 1048.09238885 9.39064629 1053.07763672 5.13095093 C1053.89361328 4.41165405 1053.89361328 4.41165405 1054.72607422 3.67782593 C1060.75552452 -0.27825609 1067.17104908 0.09358778 1074.1073761 0.11352539 C1075.26179787 0.10899428 1076.41621965 0.10446316 1077.6056239 0.09979475 C1080.80138103 0.08933721 1083.99699635 0.08782274 1087.19276512 0.0901835 C1090.64277812 0.09059219 1094.09275774 0.07954752 1097.54275513 0.07006836 C1104.29877159 0.05346883 1111.05475316 0.04795929 1117.81078831 0.0468436 C1123.30351772 0.04589264 1128.79623564 0.04177994 1134.28896141 0.03544235 C1149.86844793 0.01783287 1165.44790691 0.00860303 1181.02740345 0.0101033 C1182.28674768 0.01022317 1182.28674768 0.01022317 1183.5715332 0.01034546 C1184.41212338 0.01042722 1185.25271356 0.01050898 1186.11877616 0.01059322 C1199.74056666 0.01140606 1213.36224656 -0.00773179 1226.98400507 -0.03593127 C1240.97718992 -0.06467066 1254.97032085 -0.07847099 1268.96353596 -0.07674372 C1276.81707537 -0.07608019 1284.67049882 -0.08155638 1292.52401161 -0.10309982 C1299.21081068 -0.12132551 1305.89744125 -0.12564763 1312.58425442 -0.11208098 C1315.99405275 -0.10555826 1319.40352793 -0.1054084 1322.81329536 -0.12278748 C1326.51480083 -0.13821643 1330.21545926 -0.12894583 1333.91694641 -0.11352539 C1334.98777649 -0.12381252 1336.05860656 -0.13409964 1337.16188604 -0.1446985 C1344.78936825 -0.07454545 1350.98351073 1.38043572 1357.00732422 6.24032593 C1361.92668959 12.16314394 1365.48639204 18.07038247 1365.10449219 26.05892944 C1362.73468396 39.75227457 1355.27254367 53.53385481 1350.07763672 66.31845093 C1349.13789531 68.63734454 1348.1984472 70.95635703 1347.25927734 73.27548218 C1345.33777853 78.01935873 1343.41485305 82.76265288 1341.49072266 87.50546265 C1337.77096833 96.67585258 1334.06340298 105.85116042 1330.3560791 115.02658081 C1328.8008856 118.87514571 1327.24491011 122.72339426 1325.68896484 126.57165527 C1317.57288744 146.64532223 1309.46689409 166.72306278 1301.35986328 186.80038452 C1296.5379315 198.74195454 1291.71524765 210.68322085 1286.8927002 222.62454224 C1285.58194515 225.87016614 1284.27119517 229.1157921 1282.96044922 232.36141968 C1282.52772705 233.4329126 1282.09500488 234.50440552 1281.64916992 235.60836792 C1279.00391114 242.15854423 1276.35882756 248.70879126 1273.71388245 255.25909424 C1271.94246896 259.64604497 1270.1709903 264.03296938 1268.39950562 268.41989136 C1267.51977616 270.5985089 1266.64007635 272.77713842 1265.76040649 274.95578003 C1260.67789304 287.54334758 1255.59227683 300.12964621 1250.49835205 312.71260071 C1248.51564416 317.61093971 1246.53479045 322.51001032 1244.55859375 327.41098022 C1243.79282759 329.30983334 1243.02703997 331.2086778 1242.26123047 333.10751343 C1241.88649597 334.03681168 1241.51176147 334.96610992 1241.12567139 335.92356873 C1238.80545317 341.67046852 1236.46495037 347.4086724 1234.11006165 353.14144897 C1232.57835776 356.87506228 1231.05658979 360.61267714 1229.53652954 364.3510437 C1228.82112685 366.10336434 1228.10114397 367.85382292 1227.37631226 369.6022644 C1226.38473649 371.99521953 1225.40915453 374.39411162 1224.43701172 376.79501343 C1224.14226456 377.49476288 1223.8475174 378.19451233 1223.5438385 378.91546631 C1221.988702 382.80943963 1221.2240627 385.39396276 1222.70263672 389.38095093 C1224.06893854 391.88580596 1224.06893854 391.88580596 1225.84326172 394.38095093 C1226.49488281 395.33896606 1227.14650391 396.2969812 1227.81787109 397.2840271 C1228.52234375 398.30601196 1229.22681641 399.32799683 1229.95263672 400.38095093 C1231.42903136 402.56289816 1232.90295365 404.74652013 1234.37451172 406.93173218 C1235.10992188 408.02308472 1235.84533203 409.11443726 1236.60302734 410.23886108 C1279.07676341 473.80130099 1309.18041321 547.00084014 1325.45263672 651.75595093 C1325.55386841 652.53611572 1325.6551001 653.31628052 1325.75939941 654.12008667 C1328.98713614 679.29323601 1330.06025762 704.45236463 1329.96058655 729.80800629 C1329.95249048 731.98273209 1329.94755466 734.15744747 1329.9432373 736.33218384 C1329.89438253 757.73131098 1329.65610498 779.05735856 1327.70263672 800.38095093 C1327.63947266 801.08433594 1327.57630859 801.78772095 1327.51123047 802.51242065 C1319.986207 885.8179347 1296.1586978 966.30733687 1186.70263672 1151.38095093 C1185.94466797 1152.32196655 1185.18669922 1153.26298218 1184.40576172 1154.23251343 C1179.08455549 1160.78023883 1173.64529729 1167.22697441 1168.17480469 1173.6499939 C1166.64013548 1175.45443911 1165.11080251 1177.26332612 1163.58154297 1179.07235718 C1154.43490317 1189.85862317 1154.43490317 1189.85862317 1149.36401367 1194.71859741 C1147.76761902 1196.31593043 1146.3270293 1197.96918809 1144.87451172 1199.69735718 C1139.74938184 1205.5908855 1134.18031222 1211.05237732 1128.65112305 1216.56283569 C1126.76935398 1218.43924568 1124.89298934 1220.32094062 1123.01708984 1222.20321655 C1117.60822239 1227.61508622 1112.21491704 1232.98565372 1106.38256836 1237.94613647 C1103.63510879 1240.2927169 1101.02490247 1242.78461051 1098.39013672 1245.25595093 C1093.57027595 1249.73962362 1088.62759694 1253.99719323 1083.49169922 1258.11923218 C1081.01526648 1260.12743183 1078.58765886 1262.18246177 1076.17114258 1264.26205444 C1068.58874812 1270.77568793 1060.69969566 1276.84773638 1052.71679688 1282.86044312 C1050.82436773 1284.28905508 1048.93997824 1285.72753897 1047.05810547 1287.17001343 C1045.98145088 1287.99054685 1044.90463928 1288.8108743 1043.82763672 1289.63095093 C1042.90208984 1290.33735718 1041.97654297 1291.04376343 1041.02294922 1291.77157593 C1036.54862562 1294.87497883 1031.97445487 1295.02979008 1026.70263672 1294.38095093 C1022.31964588 1292.18945551 1019.50188947 1289.9790413 1017.70263672 1285.38095093 C1016.80626459 1280.13853212 1016.79280314 1276.3414336 1019.89794922 1271.90048218 C1025.06836964 1265.38904375 1031.21723488 1259.69581954 1037.14013672 1253.88095093 C1047.74993942 1243.44121195 1047.74993942 1243.44121195 1057.70263672 1232.38095093 C1059.32231488 1230.60524872 1060.9467539 1228.83386785 1062.57763672 1227.06845093 C1066.67021107 1222.58081661 1070.55534506 1217.97164865 1074.36669922 1213.24423218 C1076.42017056 1210.72718453 1078.5177645 1208.25591033 1080.63818359 1205.79525757 C1086.83693036 1198.58426864 1092.54536725 1191.06444967 1098.19091797 1183.41610718 C1099.6702895 1181.42449847 1101.16700457 1179.44746591 1102.67138672 1177.47470093 C1117.98293572 1157.36348296 1131.95619717 1136.20578986 1144.70263672 1114.38095093 C1145.15219727 1113.61331421 1145.60175781 1112.84567749 1146.06494141 1112.05477905 C1165.07924211 1079.48458218 1181.00854301 1045.89132443 1193.70263672 1010.38095093 C1194.28754883 1008.75987427 1194.28754883 1008.75987427 1194.88427734 1007.10604858 C1213.19912339 955.89780143 1224.70178545 900.15281617 1224.90576172 845.64657593 C1224.91282135 844.382061 1224.91988098 843.11754608 1224.92715454 841.81471252 C1224.94467441 837.75341705 1224.95184703 833.6922763 1224.95263672 829.63095093 C1224.95293129 828.93767323 1224.95322586 828.24439552 1224.95352936 827.53010941 C1224.9550061 806.00673539 1224.63767443 784.74238933 1221.70263672 763.38095093 C1221.60789062 762.67520935 1221.51314453 761.96946777 1221.41552734 761.24234009 C1214.25036812 708.05244794 1199.58311748 656.43140837 1176.82519531 607.78622437 C1175.66263373 605.29523769 1174.52039631 602.7954949 1173.37841797 600.29501343 C1167.20131838 586.90396639 1160.17226084 574.09099983 1152.70263672 561.38095093 C1152.13496582 560.41334839 1151.56729492 559.44574585 1150.98242188 558.44882202 C1142.83712976 544.64024011 1134.1378474 531.34152718 1124.70263672 518.38095093 C1124.18459473 517.66858276 1123.66655273 516.9562146 1123.1328125 516.22225952 C1115.66161184 506.00065862 1107.79644819 496.11502818 1099.70263672 486.38095093 C1098.96859619 485.49609009 1098.96859619 485.49609009 1098.21972656 484.59335327 C1083.99663286 467.5208276 1068.66092229 450.43922625 1051.66748047 436.06845093 C1049.24305942 433.98624438 1046.9191364 431.80592886 1044.57763672 429.63095093 C1038.8258845 424.39204356 1032.78264885 419.61782736 1026.62011719 414.87460327 C1024.68147607 413.3644675 1022.77053695 411.82441487 1020.86279297 410.27548218 C939.69367773 344.9035978 832.65370651 305.02490858 692.62060547 310.77157593 C602.34222311 320.65006154 520.01726324 358.55972768 450.70263672 416.38095093 C455.00790655 429.51738554 459.50074974 442.56945595 464.23568726 455.55703735 C465.6991586 459.57152931 467.15615089 463.58836604 468.61378479 467.60498047 C469.4035458 469.78101615 470.19362049 471.95693801 470.98399353 474.13275146 C475.57546263 486.77478318 480.13578132 499.42803938 484.69636154 512.08123779 C485.86235105 515.31599653 487.02871298 518.55062097 488.19506836 521.7852478 C489.85045661 526.37615101 491.50578032 530.96707747 493.16098118 535.55804825 C496.18084225 543.93410445 499.20135206 552.30992655 502.22216797 560.68563843 C502.44850229 561.31319534 502.67483662 561.94075226 502.90802956 562.58732605 C505.19207483 568.92029397 507.47619648 575.25323433 509.76051044 581.58610535 C510.90531496 584.75989604 512.05007941 587.93370119 513.19482422 591.10751343 C513.53481477 592.05013283 513.53481477 592.05013283 513.88167381 593.01179504 C517.11500231 601.97638105 520.34617685 610.94174118 523.57608414 619.90756035 C525.65946735 625.69052574 527.74347784 631.47326505 529.82763672 637.25595093 C530.17007542 638.2061442 530.17007542 638.2061442 530.51943207 639.17553329 C537.25372304 657.86100646 544.02720934 676.53193742 550.82763672 695.19345093 C558.01398994 714.91420715 565.11114862 734.66543653 572.15734863 754.43667603 C578.43729674 772.05742869 584.76249 789.66093179 591.13574219 807.24813843 C591.83643504 809.18172882 592.53711851 811.11532262 593.23779297 813.04891968 C593.76738617 814.51027847 593.76738617 814.51027847 594.30767822 816.00115967 C597.19620041 823.97507535 600.07401534 831.95282991 602.94873047 839.93173218 C603.40611749 841.20114146 603.86350478 842.47055063 604.32089233 843.73995972 C605.01601287 845.66921479 605.71112352 847.59847342 606.40622139 849.52773666 C607.10917944 851.47881303 607.81215232 853.42988405 608.51513672 855.38095093 C608.74757584 856.02606377 608.98001495 856.67117661 609.21949768 857.33583832 C616.4586743 877.42622675 623.74282257 897.49985682 631.05599976 917.56344604 C635.75754222 930.46695971 640.43047991 943.38012425 645.04638672 956.31454468 C645.26861782 956.93723047 645.49084892 957.55991627 645.7198143 958.20147133 C648.06157154 964.764534 650.39850848 971.3292939 652.73046875 977.89584351 C658.2572255 993.44082882 663.9363003 1008.92337163 669.70263672 1024.38095093 C680.42482848 995.8289972 691.11157224 967.26428261 701.73486328 938.67538452 C704.71988728 930.64290571 707.70907044 922.6119744 710.69787598 914.5809021 C712.04356663 910.96481828 713.3890265 907.34864862 714.73449707 903.73248291 C717.30450006 896.82522999 719.87479559 889.91808626 722.44602966 883.0112915 C728.91165423 865.6433941 735.37223261 848.27363217 741.82373047 830.90048218 C742.09342022 830.17424149 742.36310997 829.44800079 742.64097214 828.69975281 C744.03284505 824.95158652 745.42468987 821.2034098 746.81652832 817.45523071 C755.14354475 795.03089757 763.47396947 772.60787368 771.82763672 750.19345093 C772.21399292 749.15677277 772.60034912 748.1200946 772.99841309 747.05200195 C774.50899413 742.99890086 776.01963788 738.94582314 777.53036499 734.89277649 C781.11121538 725.2856329 784.68932402 715.67747067 788.26513672 706.06845093 C788.57560944 705.23415558 788.88608215 704.39986023 789.20596313 703.5402832 C793.74599587 691.33917193 798.27997997 679.13581704 802.81201172 666.93173218 C803.0820508 666.20455994 803.35208988 665.4773877 803.63031197 664.72817993 C805.02472654 660.97322176 806.41911884 657.21825531 807.81350708 653.46328735 C808.09406574 652.70776833 808.3746244 651.9522493 808.66368484 651.17383575 C809.23107738 649.64589769 809.79846782 648.11795885 810.36585617 646.59001923 C818.60447011 624.40417924 826.85219367 602.22178037 835.11914062 580.04647827 C835.86442697 578.04729446 836.609707 576.04810829 837.35498047 574.04891968 C837.71593811 573.08067261 838.07689575 572.11242554 838.4487915 571.11483765 C841.01787594 564.22195363 843.58201823 557.327243 846.14404297 550.43173218 C846.86718262 548.48601096 847.59032707 546.54029153 848.31347656 544.59457397 C849.63632572 541.03517759 850.95814249 537.47540048 852.27929688 533.91537476 C852.58071594 533.10447891 852.88213501 532.29358307 853.19268799 531.45811462 C853.78435673 529.86582252 854.37483653 528.27308805 854.96405029 526.67988586 C856.5857924 522.31158429 858.25400565 517.96582196 859.97070312 513.63388062 C860.34596634 512.67782928 860.72122955 511.72177795 861.10786438 510.73675537 C861.83537431 508.88755098 862.5717997 507.04182235 863.31828308 505.20019531 C863.64468277 504.36700775 863.97108246 503.53382019 864.30737305 502.67538452 C864.60122391 501.94145477 864.89507477 501.20752502 865.1978302 500.45135498 C865.79557944 497.99975737 865.62303429 496.71834964 864.70263672 494.38095093 C862.82457474 492.59376292 861.01059149 491.06023251 858.95263672 489.50595093 C858.338479 489.03471802 857.72432129 488.56348511 857.09155273 488.07797241 C822.74236038 462.14683405 784.27326258 443.39264675 743.20654297 430.82626343 C742.19581726 430.51617844 741.18509155 430.20609344 740.14373779 429.88661194 C735.05597765 428.32934869 729.96327165 426.79294809 724.859375 425.28939819 C722.96720323 424.71992751 721.07510991 424.15019606 719.18310547 423.58016968 C718.31545059 423.33151154 717.44779572 423.08285339 716.55384827 422.82666016 C711.20045812 421.19609089 707.69549275 419.33945646 703.70263672 415.38095093 C701.29544141 410.67122098 701.31543234 406.3908545 702.70263672 401.38095093 C704.85055098 397.38138644 706.44376536 394.9744062 710.70263672 393.38095093 C762.25328856 387.77620243 824.80462085 411.95830709 869.78125 435.38339233 C871.77855112 436.42036468 873.78504955 437.43796406 875.79248047 438.45516968 C899.49055171 450.58668609 921.61181117 465.89975417 942.00390625 482.9703064 C944.37279782 484.93746011 946.79234065 486.8398909 949.20263672 488.75595093 C960.61571262 498.14602962 971.07320717 508.65239294 981.55337524 519.05645752 C982.59414886 520.08918438 983.6363978 521.12042698 984.68026733 522.15002441 C990.73284227 528.12844273 996.43146512 534.24773438 1001.71923828 540.93002319 C1003.72527187 543.40892167 1005.83565542 545.74158774 1008.01513672 548.06845093 C1014.10613505 554.76430449 1019.37220634 562.07793999 1024.70263672 569.38095093 C1025.36247559 570.27886353 1025.36247559 570.27886353 1026.03564453 571.19491577 C1072.83761558 634.98466922 1102.81560693 712.13313568 1107.70263672 791.38095093 C1107.75758301 792.225448 1107.8125293 793.06994507 1107.86914062 793.94003296 C1108.25550922 800.0843193 1108.52391242 806.22722784 1108.70263672 812.38095093 C1108.72600098 813.18339233 1108.74936523 813.98583374 1108.7734375 814.81259155 C1110.84064995 900.07207652 1086.85520587 986.5742383 1044.70263672 1060.38095093 C1044.18443359 1061.29086792 1043.66623047 1062.20078491 1043.13232422 1063.13827515 C1027.87822326 1089.78129076 1010.41062028 1114.84444421 990.70263672 1138.38095093 C990.19490723 1138.9877771 989.68717773 1139.59460327 989.1640625 1140.21981812 C987.66210072 1142.00789083 986.15323512 1143.78979548 984.64013672 1145.56845093 C984.21845215 1146.06578735 983.79676758 1146.56312378 983.36230469 1147.07553101 C974.40358132 1157.50086002 964.8626617 1167.38834187 955.12841797 1177.08554077 C953.43582325 1178.77271051 951.74873075 1180.46525288 950.06201172 1182.15829468 C944.44411551 1187.77993762 938.77563963 1193.24673662 932.70263672 1198.38095093 C931.61908618 1199.32973948 930.53700727 1200.28021181 929.45654297 1201.23251343 C920.51358062 1209.03325859 911.2246211 1216.30212113 901.70263672 1223.38095093 C900.61958252 1224.18750122 900.61958252 1224.18750122 899.51464844 1225.01034546 C882.60847652 1237.54585559 865.02607309 1249.0254212 846.70263672 1259.38095093 C845.88633789 1259.84324097 845.07003906 1260.30553101 844.22900391 1260.78182983 C774.25202563 1300.19157973 694.14696915 1323.56177919 587.95263672 1326.63095093 C586.16783905 1326.63246155 586.16783905 1326.63246155 584.34698486 1326.63400269 C563.98476979 1326.62240009 543.92167089 1325.76965414 523.70263672 1323.38095093 C521.89496826 1323.1721228 521.89496826 1323.1721228 520.05078125 1322.95907593 C458.5850894 1315.6168448 399.47112736 1296.96415387 343.70263672 1270.38095093 C342.7817627 1269.94315308 341.86088867 1269.50535522 340.91210938 1269.05429077 C326.04526607 1261.93603459 311.81842001 1253.88123622 297.70263672 1245.38095093 C296.78562988 1244.83148804 295.86862305 1244.28202515 294.92382812 1243.71591187 C276.06151381 1232.37738712 258.15151051 1219.78083843 240.70263672 1206.38095093 C240.10257812 1205.92123901 239.50251953 1205.4615271 238.88427734 1204.98788452 C227.13547375 1195.95847412 215.90813598 1186.36252145 204.94091797 1176.40048218 C202.82286224 1174.48942666 200.67549104 1172.6188951 198.51513672 1170.75595093 C195.35710964 1168.0092901 192.41154547 1165.11179 189.47998047 1162.12704468 C187.63670098 1160.3161745 185.72440873 1158.62773739 183.76513672 1156.94345093 C177.48097813 1151.50850296 171.82917625 1145.60978263 166.41748047 1139.31454468 C164.74259373 1137.42600496 163.00316085 1135.64939445 161.20263672 1133.88095093 C157.49050313 1130.21798467 154.0958279 1126.33860492 150.70263672 1122.38095093 C149.79548133 1121.33763713 148.88789591 1120.29469714 147.97998047 1119.25204468 C141.47291151 1111.75374788 135.20471161 1104.10899646 129.14306641 1096.24667358 C127.64068287 1094.30070495 126.12880732 1092.36233863 124.61669922 1090.42391968 C70.47594651 1020.69869511 31.45267017 938.78691992 4.70263672 631.38095093 C4.78642578 630.68272217 4.87021484 629.98449341 4.95654297 629.2651062 C14.33503418 551.49449272 38.01938713 476.94326313 81.89013672 388.75595093 C82.37345459 387.8578772 82.85677246 386.95980347 83.35473633 386.03451538 C85.67139966 381.8006674 88.07417796 377.76279789 90.88623047 373.83798218 C91.62933472 372.75154419 91.62933472 372.75154419 92.38745117 371.64315796 C93.82763672 369.56845093 93.82763672 369.56845093 95.28540039 367.7984314 C96.83705595 365.52650645 97.4037274 364.13852054 97.70263672 361.38095093 C96.52071514 356.2745406 94.67176195 351.54938555 92.66741943 346.71514893 C91.73049961 344.44836247 90.8350942 342.16985444 89.953125 339.88119507 C88.40977011 335.88676797 86.83287614 331.9066134 85.24502563 327.9296875 C83.37363026 323.24174812 81.51388269 318.54917972 79.65185547 313.85751343 C79.25427536 312.856642 78.85669525 311.85577057 78.44706726 310.8245697 C73.60390786 298.6269853 68.81026782 286.40997606 64.01513672 274.19345093 C63.08173496 271.8161608 62.14830378 269.43888223 61.21484375 267.06161499 C59.79805842 263.45333652 58.38133179 259.84503505 56.96478271 256.23666382 C53.68233367 247.8752969 50.39812917 239.51462132 47.11279297 231.15438843 C37.89108277 207.68729513 28.67536455 184.21787512 19.47259521 160.74334717 C14.27924715 147.49638403 9.08355147 134.25034963 3.87783813 121.00823975 C1.56808404 115.13241621 -0.73859645 109.25542876 -3.03808594 103.37557983 C-7.19653696 92.7514782 -11.37856498 82.13976853 -15.67987061 71.57254028 C-17.573517 66.91552043 -19.44979145 62.2515926 -21.32470703 57.58700562 C-22.21076488 55.39690176 -23.10538753 53.21024006 -24.00927734 51.0274353 C-34.71730978 25.15708716 -34.71730978 25.15708716 -29.73486328 12.88095093 C-22.87355706 1.63803863 -12.2449634 -0.071975 0 0 Z " fill="#1E3863" transform="translate(31.29736328125,-0.380950927734375)"/>
<path d="M0 0 C1.15442177 -0.00453111 2.30884355 -0.00906223 3.4982478 -0.01373065 C6.69400493 -0.02418818 9.88962025 -0.02570265 13.08538902 -0.02334189 C16.53540202 -0.0229332 19.98538164 -0.03397787 23.43537903 -0.04345703 C30.19139549 -0.06005656 36.94737706 -0.0655661 43.70341221 -0.06668179 C49.19614162 -0.06763275 54.68885954 -0.07174545 60.18158531 -0.07808304 C75.76107183 -0.09569252 91.34053081 -0.10492236 106.92002735 -0.10342209 C108.17937158 -0.10330222 108.17937158 -0.10330222 109.4641571 -0.10317993 C110.30474728 -0.10309817 111.14533746 -0.10301641 112.01140007 -0.10293217 C125.63319056 -0.10211933 139.25487046 -0.12125718 152.87662897 -0.14945666 C166.86981382 -0.17819605 180.86294476 -0.19199638 194.85615987 -0.19026911 C202.70969927 -0.18960558 210.56312272 -0.19508177 218.41663551 -0.21662521 C225.10343458 -0.2348509 231.79006515 -0.23917302 238.47687832 -0.22560637 C241.88667665 -0.21908365 245.29615183 -0.21893379 248.70591927 -0.23631287 C252.40742473 -0.25174182 256.10808316 -0.24247122 259.80957031 -0.22705078 C260.88040039 -0.23733791 261.95123047 -0.24762503 263.05450994 -0.25822389 C270.68199215 -0.18807084 276.87613463 1.26691033 282.89994812 6.12680054 C287.81931349 12.04961854 291.37901594 17.95685708 290.99711609 25.94540405 C288.62730786 39.63874918 281.16516757 53.42032942 275.97026062 66.20492554 C275.03051921 68.52381915 274.0910711 70.84283164 273.15190125 73.16195679 C271.23040243 77.90583334 269.30747695 82.64912749 267.38334656 87.39193726 C263.66359224 96.56232719 259.95602688 105.73763503 256.248703 114.91305542 C254.6935095 118.76162032 253.13753402 122.60986887 251.58158875 126.45812988 C243.46551134 146.53179684 235.359518 166.60953739 227.25248718 186.68685913 C222.4305554 198.62842915 217.60787155 210.56969546 212.7853241 222.51101685 C211.47456905 225.75664075 210.16381907 229.00226671 208.85307312 232.24789429 C208.42035095 233.31938721 207.98762878 234.39088013 207.54179382 235.49484253 C204.89653504 242.04501884 202.25145146 248.59526587 199.60650635 255.14556885 C197.83509286 259.53251958 196.0636142 263.91944399 194.29212952 268.30636597 C193.41240006 270.48498351 192.53270025 272.66361303 191.6530304 274.84225464 C186.57051694 287.42982219 181.48490073 300.01612081 176.39097595 312.59907532 C174.40826806 317.49741432 172.42741436 322.39648493 170.45121765 327.29745483 C169.68545149 329.19630795 168.91966388 331.09515241 168.15385437 332.99398804 C167.77911987 333.92328629 167.40438538 334.85258453 167.01829529 335.81004333 C164.69807707 341.55694313 162.35757427 347.29514701 160.00268555 353.02792358 C158.47098166 356.76153689 156.9492137 360.49915175 155.42915344 364.23751831 C154.71375076 365.98983895 153.99376787 367.74029753 153.26893616 369.48873901 C152.27736039 371.88169414 151.30177843 374.28058623 150.32963562 376.68148804 C150.03488846 377.38123749 149.7401413 378.08098694 149.4364624 378.80194092 C147.8813259 382.69591424 147.1166866 385.28043737 148.59526062 389.26742554 C149.96156244 391.77228057 149.96156244 391.77228057 151.73588562 394.26742554 C152.38750671 395.22544067 153.03912781 396.18345581 153.710495 397.17050171 C154.76720398 398.703479 154.76720398 398.703479 155.84526062 400.26742554 C157.32165526 402.44937277 158.79557755 404.63299474 160.26713562 406.81820679 C161.00254578 407.90955933 161.73795593 409.00091187 162.49565125 410.12533569 C204.96938731 473.68777559 235.07303712 546.88731475 251.34526062 651.64242554 C251.44649231 652.42259033 251.547724 653.20275513 251.65202332 654.00656128 C254.89281808 679.28155044 255.89984193 704.47991303 255.73258972 729.93087769 C255.71158455 733.48574282 255.70288319 737.04064036 255.69291687 740.59555054 C255.67190006 747.48624942 255.63808771 754.37682833 255.59526062 761.26742554 C253.42740842 757.286033 252.95991676 753.45944311 252.48197937 749.00570679 C252.28691317 747.32419088 252.09150577 745.64271452 251.89579773 743.96127319 C251.79604645 743.08239441 251.69629517 742.20351563 251.59352112 741.29800415 C249.80292893 725.63652092 247.62067611 710.22978542 244.16850281 694.83676147 C243.62337105 692.39341962 243.10820377 689.94586968 242.60307312 687.49398804 C238.96942177 670.08587011 233.66263859 653.19994384 228.09526062 636.32992554 C227.86805328 635.63599701 227.64084595 634.94206848 227.40675354 634.22711182 C224.26976362 624.67444508 220.64846914 615.47728037 216.59526062 606.26742554 C215.75303722 604.24605739 214.91561112 602.22268214 214.08354187 600.19711304 C207.52594013 584.41387853 200.38853536 568.92951486 191.59526062 554.26742554 C190.58521737 552.43960614 189.58486285 550.60639224 188.59526062 548.76742554 C182.20881027 537.00495251 175.43497283 525.68270406 167.97026062 514.57992554 C167.53495026 513.92989563 167.09963989 513.27986572 166.65113831 512.61013794 C155.83931737 496.47740009 144.41791713 480.96333415 132.02787781 466.00424194 C129.9664393 463.50508148 127.94109355 460.97697182 125.90776062 458.45492554 C122.13921364 453.84969198 118.18737758 449.43869019 114.14994812 445.06820679 C112.14531678 442.87046876 110.17971499 440.652221 108.22807312 438.40805054 C95.98008147 424.36956159 83.06286513 410.21682738 68.80229187 398.19320679 C66.22524712 395.9445642 63.74618569 393.60467239 61.25907898 391.25741577 C55.4616828 385.78659312 49.61434323 380.50136188 43.38041687 375.52523804 C40.77353307 373.41194374 38.23922488 371.23803299 35.710495 369.03305054 C27.91964059 362.24774973 19.8030641 355.967244 11.55278015 349.75326538 C9.83282086 348.44774377 8.12943519 347.12545077 6.43510437 345.78695679 C-9.53013699 333.22931635 -26.35782675 321.85405 -43.94087219 311.69418335 C-46.41428835 310.26189599 -48.87469614 308.80900314 -51.33442688 307.35336304 C-79.16230397 291.01960909 -108.11433768 278.3500778 -138.40522766 267.36459351 C-140.85080813 266.47004372 -143.28446783 265.55365581 -145.71333313 264.61508179 C-168.59109535 255.91612285 -193.34278238 250.429599 -217.40473938 246.26742554 C-218.41858704 246.08872925 -219.43243469 245.91003296 -220.477005 245.72592163 C-250.80038989 240.49073962 -281.11327236 238.99186599 -311.84223938 238.95492554 C-313.04245728 238.95134033 -314.24267517 238.94775513 -315.47926331 238.94406128 C-331.23191589 238.91870728 -346.73900269 239.6303051 -362.40473938 241.26742554 C-363.75920533 241.40076614 -365.11376948 241.53311552 -366.46846008 241.66415405 C-369.76238698 241.99051349 -373.05244168 242.33947806 -376.34223938 242.70492554 C-378.04114319 242.89333008 -378.04114319 242.89333008 -379.77436829 243.08554077 C-387.1194732 243.93030659 -394.34847099 245.00742612 -401.58442688 246.52133179 C-404.68701603 247.12725666 -407.74529996 247.59505973 -410.87348938 248.02914429 C-420.29942522 249.45766367 -429.56282598 251.65391789 -438.8495636 253.78842163 C-442.00007021 254.51062436 -445.15337992 255.21948709 -448.30708313 255.92758179 C-460.19808845 258.62990281 -471.79962245 261.77839065 -483.3724823 265.61669922 C-486.69094004 266.67926547 -490.04549773 267.59235964 -493.40473938 268.51742554 C-519.64294486 276.04034566 -546.15772706 286.49697569 -570.32417297 299.19564819 C-572.69458441 300.41673552 -575.08771401 301.58410983 -577.48677063 302.74789429 C-590.87587694 309.26693481 -603.70864567 316.48869742 -616.40473938 324.26742554 C-618.01929016 325.25355835 -618.01929016 325.25355835 -619.66645813 326.25961304 C-642.648204 340.61891016 -664.76048104 357.08958631 -684.55708313 375.60726929 C-686.44562113 377.37145911 -688.35452432 379.11411306 -690.28364563 380.83383179 C-702.36993982 391.63263792 -713.41336963 403.5061711 -723.40473938 416.26742554 C-724.50607503 417.65041872 -725.6076582 419.03321481 -726.70942688 420.41586304 C-749.00085636 448.54920529 -765.82910664 479.11187049 -779.40473938 512.26742554 C-780.04645711 513.81699142 -780.68835667 515.36648203 -781.33052063 516.91586304 C-783.7711678 522.85619673 -785.9581255 528.77943444 -787.70161438 534.96273804 C-788.43367288 537.36226313 -789.32203813 539.63668045 -790.27973938 541.95492554 C-816.7270118 606.82559374 -819.84270021 678.8742281 -808.40473938 747.26742554 C-808.23973938 748.29400269 -808.07473938 749.32057983 -807.90473938 750.37826538 C-807.65723938 751.90701294 -807.65723938 751.90701294 -807.40473938 753.46664429 C-807.26036438 754.36600708 -807.11598938 755.26536987 -806.96723938 756.19198608 C-805.18100803 765.95811297 -802.64753958 775.58109217 -800.25605774 785.21224976 C-799.81632897 786.98766073 -799.37912064 788.76369801 -798.9445343 790.54037476 C-796.50077655 800.52871288 -793.88879543 810.35741938 -790.51142883 820.07382202 C-789.40542276 823.26545348 -788.39101675 826.474506 -787.40473938 829.70492554 C-787.08505188 830.75164429 -786.76536438 831.79836304 -786.43598938 832.87680054 C-785.89369106 834.65981167 -785.3515623 836.44287492 -784.81098938 838.22640991 C-782.58845063 845.53995148 -780.33027872 852.77178325 -777.37348938 859.82992554 C-776.23670378 862.6902248 -775.28961758 865.58916564 -774.34223938 868.51742554 C-772.99063749 872.67373492 -771.43477621 876.41035556 -769.40473938 880.26742554 C-769.40473938 880.92742554 -769.40473938 881.58742554 -769.40473938 882.26742554 C-770.06473938 882.26742554 -770.72473938 882.26742554 -771.40473938 882.26742554 C-772.70942688 880.45883179 -772.70942688 880.45883179 -774.27973938 877.82992554 C-777.36618266 872.82643675 -780.66366296 868.04172097 -784.09223938 863.26742554 C-821.64155196 810.45450001 -844.06365386 747.95680014 -854.40473938 684.26742554 C-854.57713135 683.21443268 -854.57713135 683.21443268 -854.75300598 682.14016724 C-861.34349256 641.2970919 -861.01445824 598.08400136 -854.40473938 557.26742554 C-854.29819031 556.60172546 -854.19164124 555.93602539 -854.0818634 555.25015259 C-843.36543915 488.91448492 -816.44153507 425.82877456 -777.40473938 371.26742554 C-776.82836731 370.46047241 -776.25199524 369.65351929 -775.65815735 368.82211304 C-769.07908372 359.65487531 -762.33246319 350.71759525 -754.93208313 342.19711304 C-752.4414425 339.30997166 -750.04291697 336.36455887 -747.65473938 333.39242554 C-744.66813345 329.72028195 -741.58532673 326.31415665 -738.17353821 323.03720093 C-736.46630758 321.32902773 -734.90784341 319.5617408 -733.34614563 317.72055054 C-728.79005018 312.47947717 -723.88626417 307.60297368 -718.96723938 302.70492554 C-717.61275696 301.34464233 -717.61275696 301.34464233 -716.23091125 299.95687866 C-711.64930059 295.38190321 -707.01557148 290.93852647 -702.1007843 286.7227478 C-699.94501537 284.87295097 -697.86629353 282.94464283 -695.77973938 281.01742554 C-690.73787599 276.46820224 -685.4529124 272.29839834 -680.08833313 268.14242554 C-677.65769747 266.25699719 -675.25635471 264.34263026 -672.87739563 262.39242554 C-641.60765826 236.7995326 -606.42498157 216.35068989 -570.40473938 198.26742554 C-569.49691711 197.80884155 -568.58909485 197.35025757 -567.65376282 196.8777771 C-493.55302679 159.67250447 -408.12463967 140.32091286 -320.15473938 140.07992554 C-318.79327789 140.08083191 -318.79327789 140.08083191 -317.40431213 140.08175659 C-252.6725191 140.19762917 -188.6154974 151.58640202 -127.96723938 174.26742554 C-127.32617249 174.50682861 -126.68510559 174.74623169 -126.02461243 174.9928894 C-115.02544039 179.11952712 -104.20987082 183.65973098 -93.40473938 188.26742554 C-85.94196781 168.40185208 -78.49088835 148.53198255 -71.09223938 128.64242554 C-70.78068909 127.80494781 -70.46913879 126.96747009 -70.14814758 126.10461426 C-65.96521075 114.85855386 -61.78918295 103.60993093 -57.61489868 92.36065674 C-55.58522562 86.89093144 -53.55500482 81.42140948 -51.52473354 75.9519062 C-50.08446942 72.07166964 -48.64459405 68.19128968 -47.20561218 64.31057739 C-44.30782133 56.49603246 -41.40640124 48.68288092 -38.493083 40.87410927 C-36.98224515 36.8231809 -35.48240701 32.7683224 -33.98677063 28.71176147 C-33.28279609 26.82129341 -32.57840583 24.93098008 -31.87348938 23.04086304 C-31.42326416 21.80706406 -31.42326416 21.80706406 -30.96394348 20.54833984 C-28.69969509 14.52282666 -26.01498725 9.2771209 -21.02973938 5.01742554 C-20.485755 4.53789429 -19.94177063 4.05836304 -19.38130188 3.56430054 C-13.35185158 -0.39178148 -6.93632702 -0.01993761 0 0 Z " fill="#1E3863" transform="translate(1105.4047393798828,-0.267425537109375)"/>
<path d="M0 0 C1.25983704 -0.00100708 2.51967407 -0.00201416 3.81768799 -0.00305176 C56.53309743 0.02534239 108.77204295 6.50784521 158.9375 23.25 C160.55688477 23.78584717 160.55688477 23.78584717 162.20898438 24.33251953 C239.83005493 50.1237866 308.15929771 93.09021937 368.4609375 148.01953125 C370.53181404 149.88462668 372.6230356 151.71898089 374.7265625 153.546875 C385.03074965 162.54893741 394.87079448 172.09608114 404.5625 181.75 C405.51962891 182.70024048 405.51962891 182.70024048 406.49609375 183.66967773 C410.23692461 187.42281395 413.77709309 191.29845632 417.24072266 195.30810547 C419.85420967 198.29913794 422.58760844 201.17337297 425.3125 204.0625 C429.9075492 208.97805797 434.31012156 213.98140195 438.515625 219.23828125 C440.35769063 221.52897899 442.22007939 223.79176262 444.109375 226.04296875 C456.44627005 240.77158628 467.65090711 256.149202 478.3125 272.125 C478.68532104 272.68314392 479.05814209 273.24128784 479.44226074 273.81634521 C484.79764786 281.85120293 489.91589225 290.00469569 494.9375 298.25 C495.75958559 299.57994116 496.58234284 300.90946779 497.40625 302.23828125 C502.38057994 310.37896352 506.79169495 318.67217682 510.95800781 327.25146484 C511.92033223 329.21497124 512.90456072 331.16557944 513.8984375 333.11328125 C529.66229062 364.0480388 542.4727633 396.55894879 550.9375 430.25 C551.28285043 431.58359367 551.62913211 432.9169467 551.9765625 434.25 C552.80487287 437.48243069 553.60104619 440.72056867 554.37939453 443.96533203 C555.01178737 446.55410377 555.6773866 449.13360623 556.33984375 451.71484375 C560.90283694 469.96094391 563.44242269 488.35661049 565.66351318 507.00897217 C565.94069035 509.27609492 566.24069585 511.53938782 566.54345703 513.80322266 C567.84632476 523.89020659 568.03436259 533.4897458 567.3125 543.625 C567.21438619 545.1354081 567.11640801 546.64582501 567.01855469 548.15625 C561.42199072 631.0936753 540.04113937 711.10379533 424.9375 913.25 C424.17953125 914.19101563 423.4215625 915.13203125 422.640625 916.1015625 C417.31941877 922.6492879 411.88016058 929.09602348 406.40966797 935.51904297 C404.87499877 937.32348818 403.34566579 939.13237519 401.81640625 940.94140625 C392.66976646 951.72767224 392.66976646 951.72767224 387.59887695 956.58764648 C386.0024823 958.1849795 384.56189259 959.83823716 383.109375 961.56640625 C377.98424512 967.45993457 372.4151755 972.9214264 366.88598633 978.43188477 C365.00421726 980.30829475 363.12785262 982.18998969 361.25195312 984.07226562 C355.84308567 989.48413529 350.44978033 994.85470279 344.61743164 999.81518555 C341.86997207 1002.16176597 339.25976575 1004.65365959 336.625 1007.125 C331.80513923 1011.60867269 326.86246022 1015.8662423 321.7265625 1019.98828125 C319.25012977 1021.9964809 316.82252214 1024.05151084 314.40600586 1026.13110352 C306.8236114 1032.644737 298.93455894 1038.71678545 290.95166016 1044.72949219 C289.05923101 1046.15810415 287.17484152 1047.59658804 285.29296875 1049.0390625 C284.21631416 1049.85959592 283.13950256 1050.67992337 282.0625 1051.5 C281.13695312 1052.20640625 280.21140625 1052.9128125 279.2578125 1053.640625 C274.78348891 1056.7440279 270.20931815 1056.89883916 264.9375 1056.25 C260.55450917 1054.05850458 257.73675276 1051.84809038 255.9375 1047.25 C255.04112787 1042.00758119 255.02766642 1038.21048267 258.1328125 1033.76953125 C263.30323292 1027.25809283 269.45209816 1021.56486861 275.375 1015.75 C285.9848027 1005.31026102 285.9848027 1005.31026102 295.9375 994.25 C297.55717817 992.47429779 299.18161718 990.70291693 300.8125 988.9375 C304.90507435 984.44986568 308.79020834 979.84069772 312.6015625 975.11328125 C314.65503384 972.5962336 316.75262778 970.1249594 318.87304688 967.66430664 C325.07179364 960.45331771 330.78023053 952.93349874 336.42578125 945.28515625 C337.90515279 943.29354754 339.40186785 941.31651498 340.90625 939.34375 C356.217799 919.23253204 370.19106045 898.07483894 382.9375 876.25 C383.38706055 875.48236328 383.83662109 874.71472656 384.29980469 873.92382812 C403.31410539 841.35363125 419.24340629 807.76037351 431.9375 772.25 C432.32744141 771.16928223 432.71738281 770.08856445 433.11914062 768.97509766 C451.43398668 717.7668505 462.93664873 662.02186524 463.140625 607.515625 C463.14768463 606.25111008 463.15474426 604.98659515 463.16201782 603.6837616 C463.17953769 599.62246612 463.18671032 595.56132537 463.1875 591.5 C463.18779457 590.8067223 463.18808914 590.1134446 463.18839264 589.39915848 C463.18986938 567.87578446 462.87253771 546.61143841 459.9375 525.25 C459.84275391 524.54425842 459.74800781 523.83851685 459.65039062 523.11138916 C452.4852314 469.92149702 437.81798076 418.30045744 415.06005859 369.65527344 C413.89749701 367.16428676 412.75525959 364.66454398 411.61328125 362.1640625 C405.43618166 348.77301547 398.40712412 335.9600489 390.9375 323.25 C390.3698291 322.28239746 389.8021582 321.31479492 389.21728516 320.31787109 C381.07199304 306.50928918 372.37271068 293.21057625 362.9375 280.25 C362.41945801 279.53763184 361.90141602 278.82526367 361.36767578 278.09130859 C353.89647512 267.86970769 346.03131147 257.98407725 337.9375 248.25 C337.20345947 247.36513916 337.20345947 247.36513916 336.45458984 246.46240234 C322.23149615 229.38987668 306.89578557 212.30827533 289.90234375 197.9375 C287.4779227 195.85529345 285.15399968 193.67497793 282.8125 191.5 C277.06074778 186.26109263 271.01751213 181.48687643 264.85498047 176.74365234 C262.91633936 175.23351658 261.00540023 173.69346394 259.09765625 172.14453125 C177.92854101 106.77264687 70.88856979 66.89395766 -69.14453125 72.640625 C-154.8552196 82.01930214 -236.46911157 116.72342939 -302.89746094 171.48193359 C-304.44186604 172.74316293 -305.99864527 173.98930254 -307.56347656 175.22509766 C-314.50299964 180.75843445 -320.83700936 186.71431733 -327.07910156 193.00585938 C-328.68597307 194.62346287 -330.30328494 196.23006913 -331.921875 197.8359375 C-338.41484371 204.32029772 -344.35315741 211.054801 -350.0625 218.25 C-351.13423231 219.53291567 -352.2105426 220.81203154 -353.29296875 222.0859375 C-366.82247604 238.19067626 -377.84630126 255.90632246 -388.0625 274.25 C-388.41473633 274.86939453 -388.76697266 275.48878906 -389.12988281 276.12695312 C-412.06167563 316.45296853 -424.36179357 362.32298351 -429.0625 408.25 C-429.16038818 409.19528564 -429.25827637 410.14057129 -429.35913086 411.11450195 C-430.3057663 421.58153704 -430.26292786 432.06176323 -430.25 442.5625 C-430.24859512 444.03339081 -430.24859512 444.03339081 -430.24716187 445.53399658 C-430.15401216 490.52025632 -423.40116892 536.82380575 -405.0625 578.25 C-404.43060714 579.77480741 -403.80200862 581.30098207 -403.17578125 582.828125 C-389.03049262 617.05417631 -369.53041075 649.48749821 -344.328125 676.7734375 C-342.45103839 678.82528734 -340.62875363 680.90660954 -338.8125 683.01171875 C-334.97669482 687.40516102 -330.93799932 691.56668715 -326.8125 695.6875 C-326.06524658 696.43394775 -325.31799316 697.18039551 -324.5480957 697.94946289 C-319.77254884 702.67245761 -314.93117805 707.08831419 -309.640625 711.23046875 C-306.85673539 713.41118228 -304.18563649 715.69959825 -301.5 718 C-273.38358756 741.33446506 -240.19565759 760.27006298 -206.0625 773.25 C-204.60481201 773.80445801 -204.60481201 773.80445801 -203.11767578 774.37011719 C-189.25468211 779.59160805 -175.36271619 784.07613127 -161.02636719 787.77539062 C-159.0981877 788.27741298 -157.17399061 788.79465574 -155.25 789.3125 C-154.17105469 789.59222656 -153.09210938 789.87195312 -151.98046875 790.16015625 C-147.96765123 791.65891942 -145.12981534 793.61344981 -142.7734375 797.2265625 C-141.48291297 800.89959387 -141.52383402 804.41948635 -142.0625 808.25 C-144.31378514 812.75257028 -146.54676583 815.10023872 -151.0625 817.25 C-153.82729791 817.54873876 -156.30483244 817.67637572 -159.0625 817.625 C-159.84214111 817.61774902 -160.62178223 817.61049805 -161.42504883 817.60302734 C-170.28086384 817.40165933 -178.94792524 816.02457878 -187.67773438 814.6171875 C-190.94198356 814.11458402 -194.21902579 813.7507944 -197.5 813.375 C-259.83253126 805.04141158 -319.92455028 774.45705446 -369.0625 736.25 C-369.95839844 735.55648437 -370.85429687 734.86296875 -371.77734375 734.1484375 C-391.15897251 718.88187092 -410.39865039 702.03881177 -426.39453125 683.19921875 C-428.38070253 680.87814271 -430.44005317 678.63079916 -432.5 676.375 C-436.9008662 671.48514866 -441.02792182 666.44434369 -445.0625 661.25 C-445.53655273 660.65912598 -446.01060547 660.06825195 -446.49902344 659.45947266 C-453.46471718 650.77312575 -458.68849752 642.98323978 -462.0625 632.25 C-462.82503127 630.05592418 -463.60550197 627.86870821 -464.38720703 625.68139648 C-465.1455205 623.55520395 -465.89053053 621.42480052 -466.6328125 619.29296875 C-467.81498859 615.9208865 -469.05569086 612.573923 -470.31689453 609.23071289 C-474.62246139 597.79290544 -478.30641753 586.29679084 -481.45800781 574.48974609 C-482.04703745 572.30729137 -482.65583809 570.13155799 -483.2734375 567.95703125 C-484.56844721 563.39654742 -485.82613452 558.82672135 -487.0625 554.25 C-487.29582031 553.38761719 -487.52914063 552.52523437 -487.76953125 551.63671875 C-506.92050783 480.05098276 -510.70394834 402.55012299 -488.0625 331.25 C-487.49861572 329.45393311 -487.49861572 329.45393311 -486.92333984 327.62158203 C-485.60609573 323.43157622 -484.27517892 319.24602348 -482.9375 315.0625 C-482.71935638 314.37965942 -482.50121277 313.69681885 -482.27645874 312.99328613 C-481.64427464 311.02146885 -481.00671966 309.05147614 -480.3671875 307.08203125 C-479.8100708 305.36077026 -479.8100708 305.36077026 -479.24169922 303.60473633 C-477.99741043 300.06482488 -476.56534182 296.68718004 -475.0625 293.25 C-474.15292591 290.85934952 -473.25785138 288.46314745 -472.375 286.0625 C-461.77561271 257.61717127 -449.63598202 230.17176247 -432.0625 205.25 C-431.68947754 204.71391113 -431.31645508 204.17782227 -430.93212891 203.62548828 C-398.03168534 156.35380801 -355.94864314 117.58416123 -307.0625 87.25 C-306.36415039 86.81252441 -305.66580078 86.37504883 -304.94628906 85.92431641 C-290.41729501 76.85708953 -275.3579944 68.93899718 -260.0625 61.25 C-259.17546387 60.79915039 -258.28842773 60.34830078 -257.37451172 59.88378906 C-226.27619844 44.14729319 -192.58996456 31.64424451 -158.86889648 22.97973633 C-155.61168234 22.13277564 -152.36545903 21.24781258 -149.1171875 20.3671875 C-140.08362188 17.9428357 -130.98710389 15.79439182 -121.875 13.6875 C-121.01399689 13.48823914 -120.15299377 13.28897827 -119.26589966 13.0836792 C-107.68534075 10.41576148 -96.17040783 7.94573847 -84.35986328 6.53271484 C-81.77554783 6.2146875 -79.19904984 5.85424568 -76.62109375 5.48828125 C-65.13290591 3.86209038 -53.62131642 2.28487868 -42.0625 1.25 C-41.09884521 1.16169922 -40.13519043 1.07339844 -39.14233398 0.98242188 C-26.11500585 -0.05062304 -13.06053618 0.00724579 0 0 Z " fill="#EE3F23" transform="translate(793.0625,237.75)"/>
<path d="M0 0 C2.86384367 1.30088767 4.93277076 2.68085804 7.15698242 4.89819336 C7.74827438 5.483181 8.33956635 6.06816864 8.94877625 6.67088318 C9.57798477 7.30414017 10.2071933 7.93739716 10.85546875 8.58984375 C11.51654129 9.24900284 12.17761383 9.90816193 12.85871887 10.58729553 C14.25894132 11.98615745 15.65664308 13.38754641 17.05200195 14.79125977 C19.15559178 16.90543128 21.26946336 19.00888334 23.38476562 21.11132812 C30.00074285 27.72114017 36.3984746 34.32638779 42.16601562 41.70068359 C44.11121927 44.13943864 46.18001903 46.4117248 48.3125 48.6875 C54.40349833 55.38335356 59.66956963 62.69698906 65 70 C65.43989258 70.5986084 65.87978516 71.1972168 66.33300781 71.81396484 C113.13497886 135.6037183 143.11297021 212.75218475 148 292 C148.05494629 292.84449707 148.10989258 293.68899414 148.16650391 294.55908203 C148.5528725 300.70336838 148.8212757 306.84627692 149 313 C149.02336426 313.80244141 149.04672852 314.60488281 149.07080078 315.43164062 C151.13801323 400.69112559 127.15256915 487.19328737 85 561 C84.48179688 561.90991699 83.96359375 562.81983398 83.4296875 563.75732422 C68.17558655 590.40033983 50.70798357 615.46349328 31 639 C30.49227051 639.60682617 29.98454102 640.21365234 29.46142578 640.83886719 C27.959464 642.6269399 26.4505984 644.40884456 24.9375 646.1875 C24.51581543 646.68483643 24.09413086 647.18217285 23.65966797 647.69458008 C14.70094461 658.1199091 5.16002499 668.00739095 -4.57421875 677.70458984 C-6.26681347 679.39175958 -7.95390597 681.08430196 -9.640625 682.77734375 C-15.25852121 688.3989867 -20.92699709 693.86578569 -27 699 C-28.08355054 699.94878855 -29.16562945 700.89926088 -30.24609375 701.8515625 C-39.1890561 709.65230766 -48.47801561 716.9211702 -58 724 C-59.0830542 724.80655029 -59.0830542 724.80655029 -60.18798828 725.62939453 C-77.0941602 738.16490467 -94.67656363 749.64447027 -113 760 C-113.81629883 760.46229004 -114.63259766 760.92458008 -115.47363281 761.40087891 C-185.45061108 800.8106288 -265.55566757 824.18082826 -371.75 827.25 C-373.53479767 827.25151062 -373.53479767 827.25151062 -375.35565186 827.25305176 C-395.71786693 827.24144916 -415.78096583 826.38870321 -436 824 C-437.2051123 823.86078125 -438.41022461 823.7215625 -439.65185547 823.578125 C-501.11754732 816.23589387 -560.23150936 797.58320294 -616 771 C-616.92087402 770.56220215 -617.84174805 770.1244043 -618.79052734 769.67333984 C-633.65737065 762.55508366 -647.88421671 754.50028529 -662 746 C-663.37551025 745.17580566 -663.37551025 745.17580566 -664.77880859 744.33496094 C-683.64112291 732.99643619 -701.55112621 720.39988751 -719 707 C-719.60005859 706.54028809 -720.20011719 706.08057617 -720.81835938 705.60693359 C-732.56716297 696.57752319 -743.79450074 686.98157052 -754.76171875 677.01953125 C-756.87977448 675.10847573 -759.02714567 673.23794417 -761.1875 671.375 C-764.34552708 668.62833917 -767.29109125 665.73083907 -770.22265625 662.74609375 C-772.06593574 660.93522357 -773.97822799 659.24678646 -775.9375 657.5625 C-782.22165858 652.12755204 -787.87346047 646.2288317 -793.28515625 639.93359375 C-794.96004299 638.04505403 -796.69947587 636.26844352 -798.5 634.5 C-802.21213359 630.83703374 -805.60680882 626.95765399 -809 623 C-809.90715539 621.9566862 -810.81474081 620.91374621 -811.72265625 619.87109375 C-818.22972521 612.37279695 -824.4979251 604.72804553 -830.55957031 596.86572266 C-832.06195385 594.91975402 -833.5738294 592.9813877 -835.0859375 591.04296875 C-889.22669021 521.31774418 -928.24996655 439.40596899 -959 234 C-957.33361236 236.93629426 -956.73756942 239.12553774 -956.61328125 242.48828125 C-956.5659082 243.40230713 -956.51853516 244.31633301 -956.46972656 245.25805664 C-956.4178418 246.26602295 -956.36595703 247.27398926 -956.3125 248.3125 C-954.21543855 279.90838393 -947.22253705 312.1709383 -936.70166016 341.99121094 C-935.42494544 345.64632878 -934.22026761 349.32573979 -933 353 C-921.44155831 387.74630834 -906.55333912 421.65428358 -888.42675781 453.49072266 C-886.96454957 456.06234762 -885.52409806 458.64532957 -884.0859375 461.23046875 C-869.62142211 487.07603449 -853.03994455 511.52581582 -835 535 C-834.30245605 535.90806396 -834.30245605 535.90806396 -833.59082031 536.83447266 C-824.84400101 548.17962981 -815.68728871 559.13675709 -806.046875 569.734375 C-804.16477879 571.81761127 -802.32837688 573.93218933 -800.5 576.0625 C-797.23750083 579.81588446 -793.73338893 583.28539364 -790.19140625 586.7734375 C-788.17322719 588.82399377 -786.29686983 590.93102831 -784.4375 593.125 C-781.5649223 596.47303884 -778.46258564 599.30390908 -775.1015625 602.15234375 C-772.79748895 604.1780441 -770.65248842 606.31422567 -768.5 608.5 C-764.49268951 612.54820141 -760.33889535 616.31306302 -756 620 C-755.07832031 620.79921875 -754.15664063 621.5984375 -753.20703125 622.421875 C-744.42605304 629.99751136 -735.29027046 637.0624471 -726 644 C-725.28183105 644.53915039 -724.56366211 645.07830078 -723.82373047 645.63378906 C-711.98289051 654.48978945 -699.70622538 662.44399368 -687 670 C-686.17193848 670.49322754 -685.34387695 670.98645508 -684.49072266 671.49462891 C-634.09750893 701.31633906 -579.71455183 724.34540776 -523 739 C-521.74928711 739.32355469 -520.49857422 739.64710938 -519.20996094 739.98046875 C-480.02637589 750.01944836 -439.48208548 756.3137728 -399 757 C-398.25600952 757.0133136 -397.51201904 757.0266272 -396.7454834 757.04034424 C-350.84050981 757.83196732 -305.81474526 754.38872309 -261 744 C-260.14341797 743.80438477 -259.28683594 743.60876953 -258.40429688 743.40722656 C-187.88711364 727.14443795 -120.32353923 693.62536239 -65 647 C-64.47760742 646.56252441 -63.95521484 646.12504883 -63.41699219 645.67431641 C-45.95365528 631.02649708 -28.71767366 615.44431636 -14 598 C-13.01875029 596.87991057 -12.03546178 595.7616058 -11.05078125 594.64453125 C-4.03132556 586.66334996 2.68552067 578.55621127 9 570 C9.5053125 569.31534668 10.010625 568.63069336 10.53125 567.92529297 C29.24343713 542.47154564 46.06427671 515.72117157 59.88720703 487.28320312 C60.66706293 485.68311265 61.45236249 484.08566921 62.24169922 482.49023438 C74.56704188 457.57448792 84.384396 432.04541021 92.83984375 405.60595703 C93.80636989 402.60183434 94.80044162 399.61004728 95.8125 396.62109375 C112.03299922 347.54759848 113.60943649 290.90328819 108 240 C107.89284668 238.95166992 107.78569336 237.90333984 107.67529297 236.82324219 C106.33631635 223.77650353 104.47126489 211.00790691 101.50732422 198.23095703 C100.99799245 195.9911718 100.52718092 193.74633196 100.06640625 191.49609375 C97.91490254 181.12433882 94.98577065 171.14197012 91.67431641 161.08496094 C90.78780102 158.34388874 89.99100264 155.57889721 89.1875 152.8125 C76.30098006 110.95793524 55.47525526 70.82645314 29 36 C28.5246582 35.37303223 28.04931641 34.74606445 27.55957031 34.10009766 C21.99952778 26.80667588 16.16286308 19.78553497 10.1550293 12.85791016 C6.56617806 8.70753798 3.20770811 4.45515016 0 0 Z " fill="#EE3F23" transform="translate(991,499)"/>
<path d="M0 0 C-2.06439025 7.73949253 -4.96613662 15.0561662 -8.06628418 22.42706299 C-9.62302367 26.13110835 -11.16147617 29.84272309 -12.69921875 33.5546875 C-13.03519073 34.36537689 -13.37116272 35.17606628 -13.71731567 36.01132202 C-19.18018933 49.23300469 -24.43348096 62.54049455 -29.71850586 75.83398438 C-31.71990681 80.86398997 -33.73326241 85.88905398 -35.7565918 90.91027832 C-36.6133319 93.03917569 -37.46681942 95.16938394 -38.31762695 97.30065918 C-39.63281536 100.58791164 -40.96306136 103.86870481 -42.296875 107.1484375 C-42.69424866 108.14871979 -43.09162231 109.14900208 -43.5010376 110.17959595 C-46.87118748 118.39256105 -50.2726711 123.9666669 -58.51119232 127.93741226 C-66.7422044 130.44433535 -75.68908763 129.68022048 -84.21337891 129.63110352 C-86.4777126 129.63624607 -88.7420423 129.64352988 -91.00636292 129.65278625 C-97.13642919 129.67126318 -103.26605921 129.65838553 -109.3961072 129.63869596 C-115.8185503 129.62228176 -122.24096637 129.63112603 -128.66342163 129.63621521 C-139.44529881 129.6407324 -150.22696011 129.62499289 -161.00878906 129.59692383 C-172.08991712 129.5680762 -183.17079781 129.56101107 -194.25195312 129.57641602 C-207.62679893 129.59498433 -221.00146553 129.59322906 -234.3763237 129.57420158 C-239.47743155 129.56733493 -244.57844745 129.5683596 -249.67955399 129.57574654 C-255.68628777 129.5834142 -261.69266578 129.57126696 -267.69933891 129.54389763 C-269.90195472 129.53701848 -272.10460378 129.53691076 -274.30721855 129.54411316 C-277.31707503 129.5528203 -280.3258367 129.53682979 -283.33560181 129.5146637 C-284.20428693 129.52290446 -285.07297206 129.53114523 -285.96798098 129.53963572 C-292.75546886 129.44756342 -297.83910397 127.55108268 -303.13232422 123.27905273 C-307.94264386 117.73633195 -310.5316208 111.88365644 -313.125 105.0625 C-313.57657471 103.91402588 -314.02814941 102.76555176 -314.4934082 101.58227539 C-315.47493623 99.08228241 -316.45021637 96.58066232 -317.41748047 94.07519531 C-319.11364657 89.69152595 -320.854742 85.32618548 -322.59765625 80.9609375 C-323.79536737 77.95356062 -324.99160794 74.94560062 -326.1875 71.9375 C-326.47957336 71.20387238 -326.77164673 70.47024475 -327.0725708 69.71438599 C-327.89972601 67.6326409 -328.7220819 65.54906723 -329.54296875 63.46484375 C-330.2548938 61.66454712 -330.2548938 61.66454712 -330.98120117 59.82788086 C-332 57 -332 57 -332 55 C-331.13238037 55.11069824 -330.26476074 55.22139648 -329.37084961 55.33544922 C-251.0118724 65.22356912 -171.26543099 62.44873969 -4.2956543 1.33251953 C-2 0 -2 0 0 0 Z " fill="#1E3864" transform="translate(867,1337)"/>
</svg>
